<svg width="1249" height="311" viewBox="0 0 1249 311" fill="none" xmlns="http://www.w3.org/2000/svg">
<path d="M301.841 240.101L167.369 308.455C160.812 310.988 153.312 310.988 145.841 308.432L12.3126 239.987C5.3125 234.488 2.3125 229.488 1 222.487L1.00005 86.3286C2.3125 78.9881 4.8125 74.4881 11.7839 69.8808L146.256 1.52441C155.312 -0.512254 158.812 -0.511864 167.784 1.54805L302.072 70.1858C308.312 75.4881 310.312 77.9881 312.813 86.6549L312.628 223.649C311.312 230.488 308.312 235.488 301.841 240.101Z" fill="#F26822"/>
<g filter="url(#filter0_d_10010_7023)">
<path d="M277.782 222.923L253.509 235.181C250.393 236.754 246.542 236.77 243.41 235.219L219.043 223.169C215.9 221.613 213.959 218.723 213.954 215.59L213.832 126.458L191.027 137.873L191.187 259.964C191.192 263.076 189.282 265.956 186.177 267.524L161.904 279.782C158.788 281.354 154.937 281.371 151.805 279.82L127.438 267.769C124.298 266.213 122.354 263.324 122.352 260.191L122.23 172.305L99.4442 183.707L99.5708 215.414C99.5846 218.532 97.6742 221.422 94.561 222.995L70.4149 235.184C67.299 236.756 63.4508 236.773 60.3155 235.222L36.0566 223.224C32.9214 221.673 30.9808 218.792 30.967 215.666L30.8321 183.302C30.8183 180.181 32.7287 177.291 35.8419 175.721L59.988 163.53C63.104 161.957 66.9521 161.941 70.0846 163.489L93.6692 175.147L122.219 160.859L122.189 137.327C122.186 134.216 124.094 131.335 127.199 129.767L151.477 117.51C154.593 115.937 158.441 115.92 161.577 117.471L185.39 129.25L213.824 115.017L213.794 91.6022C213.788 88.4906 215.699 85.6102 218.804 84.0425L243.085 71.7845C246.201 70.212 250.049 70.1954 253.181 71.744L276.879 83.4635L277.55 83.7947C280.691 85.3505 282.632 88.2405 282.635 91.3735V92.0239L282.794 215.364C282.797 218.478 280.889 221.356 277.782 222.923Z" fill="white"/>
</g>
<path d="M386.503 204V109.5H427.813C438.073 109.5 447.073 111.48 454.813 115.44C462.553 119.4 468.583 124.89 472.903 131.91C477.223 138.93 479.383 147.21 479.383 156.75C479.383 166.2 477.223 174.48 472.903 181.59C468.583 188.61 462.553 194.1 454.813 198.06C447.073 202.02 438.073 204 427.813 204H386.503ZM404.053 189.15H427.003C434.113 189.15 440.233 187.8 445.363 185.1C450.583 182.4 454.588 178.62 457.378 173.76C460.258 168.9 461.698 163.23 461.698 156.75C461.698 150.18 460.258 144.51 457.378 139.74C454.588 134.88 450.583 131.1 445.363 128.4C440.233 125.7 434.113 124.35 427.003 124.35H404.053V189.15ZM542.856 204V189.42L541.911 186.315V160.8C541.911 155.85 540.426 152.025 537.456 149.325C534.486 146.535 529.986 145.14 523.956 145.14C519.906 145.14 515.901 145.77 511.941 147.03C508.071 148.29 504.786 150.045 502.086 152.295L495.471 140.01C499.341 137.04 503.931 134.835 509.241 133.395C514.641 131.865 520.221 131.1 525.981 131.1C536.421 131.1 544.476 133.62 550.146 138.66C555.906 143.61 558.786 151.305 558.786 161.745V204H542.856ZM520.176 204.945C514.776 204.945 510.051 204.045 506.001 202.245C501.951 200.355 498.801 197.79 496.551 194.55C494.391 191.22 493.311 187.485 493.311 183.345C493.311 179.295 494.256 175.65 496.146 172.41C498.126 169.17 501.321 166.605 505.731 164.715C510.141 162.825 515.991 161.88 523.281 161.88H544.206V173.085H524.496C518.736 173.085 514.866 174.03 512.886 175.92C510.906 177.72 509.916 179.97 509.916 182.67C509.916 185.73 511.131 188.16 513.561 189.96C515.991 191.76 519.366 192.66 523.686 192.66C527.826 192.66 531.516 191.715 534.756 189.825C538.086 187.935 540.471 185.145 541.911 181.455L544.746 191.58C543.126 195.81 540.201 199.095 535.971 201.435C531.831 203.775 526.566 204.945 520.176 204.945ZM622.428 204.945C616.578 204.945 611.223 203.595 606.363 200.895C601.593 198.195 597.768 194.145 594.888 188.745C592.098 183.255 590.703 176.325 590.703 167.955C590.703 159.495 592.053 152.565 594.753 147.165C597.543 141.765 601.323 137.76 606.093 135.15C610.863 132.45 616.308 131.1 622.428 131.1C629.538 131.1 635.793 132.63 641.193 135.69C646.683 138.75 651.003 143.025 654.153 148.515C657.393 154.005 659.013 160.485 659.013 167.955C659.013 175.425 657.393 181.95 654.153 187.53C651.003 193.02 646.683 197.295 641.193 200.355C635.793 203.415 629.538 204.945 622.428 204.945ZM582.468 230.19V131.91H598.533V148.92L597.993 168.09L599.343 187.26V230.19H582.468ZM620.538 190.5C624.588 190.5 628.188 189.6 631.338 187.8C634.578 186 637.143 183.39 639.033 179.97C640.923 176.55 641.868 172.545 641.868 167.955C641.868 163.275 640.923 159.27 639.033 155.94C637.143 152.52 634.578 149.91 631.338 148.11C628.188 146.31 624.588 145.41 620.538 145.41C616.488 145.41 612.843 146.31 609.603 148.11C606.363 149.91 603.798 152.52 601.908 155.94C600.018 159.27 599.073 163.275 599.073 167.955C599.073 172.545 600.018 176.55 601.908 179.97C603.798 183.39 606.363 186 609.603 187.8C612.843 189.6 616.488 190.5 620.538 190.5ZM717.001 204.945C711.151 204.945 705.796 203.595 700.936 200.895C696.166 198.195 692.341 194.145 689.461 188.745C686.671 183.255 685.276 176.325 685.276 167.955C685.276 159.495 686.626 152.565 689.326 147.165C692.116 141.765 695.896 137.76 700.666 135.15C705.436 132.45 710.881 131.1 717.001 131.1C724.111 131.1 730.366 132.63 735.766 135.69C741.256 138.75 745.576 143.025 748.727 148.515C751.967 154.005 753.587 160.485 753.587 167.955C753.587 175.425 751.967 181.95 748.727 187.53C745.576 193.02 741.256 197.295 735.766 200.355C730.366 203.415 724.111 204.945 717.001 204.945ZM677.041 230.19V131.91H693.106V148.92L692.566 168.09L693.916 187.26V230.19H677.041ZM715.111 190.5C719.161 190.5 722.761 189.6 725.912 187.8C729.151 186 731.717 183.39 733.607 179.97C735.497 176.55 736.441 172.545 736.441 167.955C736.441 163.275 735.497 159.27 733.607 155.94C731.717 152.52 729.151 149.91 725.912 148.11C722.761 146.31 719.161 145.41 715.111 145.41C711.061 145.41 707.416 146.31 704.176 148.11C700.936 149.91 698.371 152.52 696.481 155.94C694.591 159.27 693.646 163.275 693.646 167.955C693.646 172.545 694.591 176.55 696.481 179.97C698.371 183.39 700.936 186 704.176 187.8C707.416 189.6 711.061 190.5 715.111 190.5ZM773.235 204V109.5H790.785V189.15H840.195V204H773.235ZM886.197 204.945C878.817 204.945 872.247 203.37 866.487 200.22C860.727 196.98 856.182 192.57 852.852 186.99C849.522 181.41 847.857 175.065 847.857 167.955C847.857 160.755 849.522 154.41 852.852 148.92C856.182 143.34 860.727 138.975 866.487 135.825C872.247 132.675 878.817 131.1 886.197 131.1C893.667 131.1 900.282 132.675 906.042 135.825C911.892 138.975 916.437 143.295 919.677 148.785C923.007 154.275 924.672 160.665 924.672 167.955C924.672 175.065 923.007 181.41 919.677 186.99C916.437 192.57 911.892 196.98 906.042 200.22C900.282 203.37 893.667 204.945 886.197 204.945ZM886.197 190.5C890.337 190.5 894.027 189.6 897.267 187.8C900.507 186 903.027 183.39 904.827 179.97C906.717 176.55 907.662 172.545 907.662 167.955C907.662 163.275 906.717 159.27 904.827 155.94C903.027 152.52 900.507 149.91 897.267 148.11C894.027 146.31 890.382 145.41 886.332 145.41C882.192 145.41 878.502 146.31 875.262 148.11C872.112 149.91 869.592 152.52 867.702 155.94C865.812 159.27 864.867 163.275 864.867 167.955C864.867 172.545 865.812 176.55 867.702 179.97C869.592 183.39 872.112 186 875.262 187.8C878.502 189.6 882.147 190.5 886.197 190.5ZM975.233 204.945C967.853 204.945 961.283 203.37 955.523 200.22C949.763 196.98 945.218 192.57 941.888 186.99C938.558 181.41 936.893 175.065 936.893 167.955C936.893 160.755 938.558 154.41 941.888 148.92C945.218 143.34 949.763 138.975 955.523 135.825C961.283 132.675 967.853 131.1 975.233 131.1C982.703 131.1 989.318 132.675 995.078 135.825C1000.93 138.975 1005.47 143.295 1008.71 148.785C1012.04 154.275 1013.71 160.665 1013.71 167.955C1013.71 175.065 1012.04 181.41 1008.71 186.99C1005.47 192.57 1000.93 196.98 995.078 200.22C989.318 203.37 982.703 204.945 975.233 204.945ZM975.233 190.5C979.373 190.5 983.063 189.6 986.303 187.8C989.543 186 992.063 183.39 993.863 179.97C995.753 176.55 996.698 172.545 996.698 167.955C996.698 163.275 995.753 159.27 993.863 155.94C992.063 152.52 989.543 149.91 986.303 148.11C983.063 146.31 979.418 145.41 975.368 145.41C971.228 145.41 967.538 146.31 964.298 148.11C961.148 149.91 958.628 152.52 956.738 155.94C954.848 159.27 953.903 163.275 953.903 167.955C953.903 172.545 954.848 176.55 956.738 179.97C958.628 183.39 961.148 186 964.298 187.8C967.538 189.6 971.183 190.5 975.233 190.5ZM1045.64 187.935L1046.04 166.74L1083.71 131.91H1103.96L1071.96 164.04L1063.05 171.465L1045.64 187.935ZM1031.87 204V103.83H1048.74V204H1031.87ZM1086.27 204L1059.95 171.465L1070.61 157.965L1106.79 204H1086.27ZM1150.7 204.945C1142.69 204.945 1135.67 203.37 1129.64 200.22C1123.7 196.98 1119.07 192.57 1115.74 186.99C1112.5 181.41 1110.88 175.065 1110.88 167.955C1110.88 160.755 1112.45 154.41 1115.6 148.92C1118.84 143.34 1123.25 138.975 1128.83 135.825C1134.5 132.675 1140.94 131.1 1148.14 131.1C1155.16 131.1 1161.41 132.63 1166.9 135.69C1172.39 138.75 1176.71 143.07 1179.86 148.65C1183.01 154.23 1184.59 160.8 1184.59 168.36C1184.59 169.08 1184.54 169.89 1184.45 170.79C1184.45 171.69 1184.41 172.545 1184.32 173.355H1124.24V162.15H1175.41L1168.79 165.66C1168.88 161.52 1168.03 157.875 1166.23 154.725C1164.43 151.575 1161.95 149.1 1158.8 147.3C1155.74 145.5 1152.19 144.6 1148.14 144.6C1144 144.6 1140.35 145.5 1137.2 147.3C1134.14 149.1 1131.71 151.62 1129.91 154.86C1128.2 158.01 1127.35 161.745 1127.35 166.065V168.765C1127.35 173.085 1128.34 176.91 1130.32 180.24C1132.3 183.57 1135.09 186.135 1138.69 187.935C1142.29 189.735 1146.43 190.635 1151.11 190.635C1155.16 190.635 1158.8 190.005 1162.04 188.745C1165.28 187.485 1168.16 185.505 1170.68 182.805L1179.73 193.2C1176.49 196.98 1172.39 199.905 1167.44 201.975C1162.58 203.955 1157 204.945 1150.7 204.945ZM1202.82 204V131.91H1218.89V151.755L1217 145.95C1219.16 141.09 1222.53 137.4 1227.12 134.88C1231.8 132.36 1237.61 131.1 1244.54 131.1V147.165C1243.82 146.985 1243.14 146.895 1242.51 146.895C1241.88 146.805 1241.25 146.76 1240.62 146.76C1234.23 146.76 1229.15 148.65 1225.37 152.43C1221.59 156.12 1219.7 161.655 1219.7 169.035V204H1202.82Z" fill="white"/>
<defs>
<filter id="filter0_d_10010_7023" x="0.832031" y="70.5938" width="281.961" height="240.375" filterUnits="userSpaceOnUse" color-interpolation-filters="sRGB">
<feFlood flood-opacity="0" result="BackgroundImageFix"/>
<feColorMatrix in="SourceAlpha" type="matrix" values="0 0 0 0 0 0 0 0 0 0 0 0 0 0 0 0 0 0 127 0" result="hardAlpha"/>
<feOffset dx="-15" dy="15"/>
<feGaussianBlur stdDeviation="7.5"/>
<feComposite in2="hardAlpha" operator="out"/>
<feColorMatrix type="matrix" values="0 0 0 0 0 0 0 0 0 0 0 0 0 0 0 0 0 0 0.25 0"/>
<feBlend mode="normal" in2="BackgroundImageFix" result="effect1_dropShadow_10010_7023"/>
<feBlend mode="normal" in="SourceGraphic" in2="effect1_dropShadow_10010_7023" result="shape"/>
</filter>
</defs>
</svg>
